<svg version="1.1" id="Layer_1" xmlns="http://www.w3.org/2000/svg" xmlns:xlink="http://www.w3.org/1999/xlink" x="0px" y="0px"
	 width="100%" viewBox="0 0 1024 1024" enable-background="new 0 0 1024 1024" xml:space="preserve">
<path fill="#000000" opacity="1.000000" stroke="none" 
	d="
M701.965759,826.982666 
	C706.191528,828.813721 710.713623,828.763916 714.794861,831.665833 
	C708.745728,837.044739 701.779846,839.738647 694.869263,842.368347 
	C675.484558,849.744873 655.346130,853.810608 634.698425,855.427002 
	C625.748108,856.127747 616.799316,856.980896 607.833008,857.319519 
	C570.753601,858.719482 534.698059,852.724976 499.295502,842.041626 
	C489.594940,839.114319 479.774048,836.585327 470.004364,833.887939 
	C467.814453,833.283325 465.608673,832.651978 462.674011,833.817810 
	C470.123993,840.997437 478.728699,846.094177 485.198181,854.025757 
	C436.604858,855.341125 391.339478,843.545166 349.208008,819.585571 
	C306.642242,795.379028 275.992676,759.630066 251.732986,717.437012 
	C246.706619,737.246765 252.137726,755.996643 255.746948,775.091309 
	C223.792801,748.809021 201.640976,716.268982 189.759109,676.796143 
	C177.961792,637.604248 179.567032,598.172729 187.255829,558.296692 
	C170.664566,572.286743 158.208282,589.694702 145.353912,608.117859 
	C142.880981,599.501343 142.901993,591.796143 142.852676,584.306152 
	C142.674530,557.258179 146.303955,530.678589 154.333237,504.767303 
	C166.509644,465.472778 186.053497,430.158142 211.765991,398.160187 
	C212.487930,397.261780 213.154236,396.314575 213.784653,395.349670 
	C213.942291,395.108429 213.859360,394.709991 213.959244,393.530640 
	C204.307663,396.858246 195.685806,401.554199 186.872452,405.827301 
	C178.070831,410.094666 170.218552,416.001343 161.108307,420.257660 
	C172.918137,381.565552 194.189331,348.944824 222.989197,320.852417 
	C251.765274,292.783203 284.984558,271.993622 323.076904,258.344696 
	C315.046539,254.096497 306.432373,252.884933 297.958344,251.168076 
	C289.532715,249.461044 281.013458,248.493820 272.256348,247.499664 
	C300.342743,227.298935 331.628998,214.892700 365.570251,209.232986 
	C399.376312,203.595856 432.938721,205.376862 466.541779,214.056259 
	C455.147308,198.560226 441.189606,186.009674 425.981659,174.362854 
	C461.945709,172.740875 496.573151,178.758224 530.125854,191.228287 
	C563.762390,203.729507 593.845459,222.054810 620.749695,248.240601 
	C625.015930,225.887955 625.914734,204.264465 630.107605,181.511047 
	C670.580078,211.839050 701.434814,247.364914 714.042603,297.205780 
	C738.321716,277.873352 761.113464,257.894196 787.224426,241.547150 
	C793.754761,248.743362 797.478271,257.250916 800.999207,265.784882 
	C808.476624,283.908813 812.020874,302.924133 813.411377,322.425812 
	C814.546814,338.349670 816.224243,354.249023 814.751709,370.232727 
	C814.513611,372.817108 816.060669,373.249725 817.898010,373.835052 
	C841.888428,381.477844 860.165222,396.705841 874.340942,417.064789 
	C885.445007,433.012299 892.351746,450.635162 894.518921,470.115570 
	C895.148804,475.777374 895.258301,481.387390 895.330872,487.034851 
	C895.356506,489.027588 895.323059,491.038971 893.251587,492.996613 
	C879.577026,479.351288 864.329102,467.821259 845.453247,459.250793 
	C851.696228,470.080566 857.138672,479.936493 861.504639,490.334015 
	C870.249023,511.158447 875.675903,532.712524 877.459351,555.321777 
	C881.369019,604.884644 865.506531,647.963440 835.303406,686.403625 
	C825.966736,698.286499 815.956482,709.646667 804.581116,720.863647 
	C813.558228,718.896118 821.524475,716.373352 829.370789,713.296997 
	C837.146057,710.248474 844.002136,705.532898 851.501404,701.293152 
	C852.860474,704.866150 851.213318,707.516479 850.223938,710.156860 
	C843.006775,729.418762 830.626831,745.164612 816.554260,759.826965 
	C793.580994,783.762878 766.528870,801.523376 735.799988,813.793152 
	C721.948914,819.323853 707.428589,821.911011 692.091553,823.200256 
	C695.566040,824.527893 698.584961,825.681458 701.965759,826.982666 
M489.280151,806.693176 
	C501.755554,805.829346 514.051025,803.890503 525.971558,800.050415 
	C530.092163,798.722961 533.447327,798.774780 536.921387,801.917358 
	C541.249756,805.833008 546.470398,808.672974 551.769714,811.048035 
	C575.431580,821.653381 600.302979,825.984985 626.167847,824.646729 
	C629.781372,824.459778 633.143738,823.384277 636.284851,820.341980 
	C623.501282,811.222351 613.060059,800.676147 607.068542,785.789673 
	C636.335999,793.452881 665.405640,797.414307 694.912292,792.973511 
	C724.844482,788.468689 750.722290,774.701599 774.358276,756.596375 
	C772.867676,753.082947 770.572205,753.243103 768.427429,753.343323 
	C754.868958,753.976929 742.104248,750.268066 729.403564,746.243774 
	C727.944397,745.781433 726.062195,745.663696 725.459595,743.291382 
	C730.129761,740.530762 734.822876,737.727722 739.547302,734.978333 
	C741.411621,733.893372 743.395386,732.531799 741.383484,730.409729 
	C738.662598,727.539856 739.707336,724.884766 741.146545,722.228455 
	C742.780273,719.213318 743.471741,716.212402 742.460999,712.891296 
	C740.216858,713.354309 738.122620,713.956238 735.987854,714.193726 
	C730.467224,714.807861 729.046387,713.155151 730.025024,707.663269 
	C730.606934,704.397461 731.334045,701.123413 731.504456,697.827759 
	C731.685852,694.319885 731.466736,690.736328 728.913147,686.840820 
	C727.477661,689.276001 726.362732,691.050537 725.361755,692.887207 
	C722.044800,698.973511 717.553528,704.098633 712.272400,708.499268 
	C707.417786,712.544495 702.019226,715.387085 695.360413,714.335876 
	C690.366760,713.547668 689.190735,711.284973 691.187683,706.711426 
	C692.129089,704.555420 694.396423,702.715881 693.145569,699.910339 
	C690.323853,700.163330 690.351624,700.205200 688.253357,701.597412 
	C667.026184,715.682190 643.887634,719.053040 619.558716,712.590515 
	C606.142273,709.026794 595.356384,700.171021 584.546509,691.794678 
	C569.766418,680.341797 554.585693,669.541748 537.351257,661.995605 
	C523.989746,656.145203 510.240112,654.101685 496.056580,658.533569 
	C492.058777,659.782715 487.861786,661.164490 484.377075,666.897522 
	C504.408081,668.500671 521.063904,675.341614 533.258362,690.618896 
	C532.970398,690.767090 532.648376,691.084473 532.400269,691.034546 
	C531.276611,690.808105 530.188293,690.396240 529.061401,690.197815 
	C519.185425,688.458618 509.529541,688.174805 500.818817,694.397400 
	C495.807404,697.977356 495.532440,701.432617 500.347260,705.026367 
	C503.673431,707.508972 507.184143,709.780396 510.774811,711.866516 
	C530.388916,723.261658 551.415100,729.079224 574.237549,727.764343 
	C577.625549,727.569214 581.061646,727.652710 584.375366,729.468506 
	C583.845032,730.122009 583.609985,730.589905 583.231140,730.839722 
	C582.541260,731.294678 581.793701,731.692200 581.022278,731.989258 
	C547.601562,744.857971 514.632263,743.925354 482.384979,728.196106 
	C471.617859,722.944214 461.882721,716.109802 457.843201,703.916687 
	C454.439026,693.641113 453.680084,682.915344 455.048737,672.334778 
	C455.895996,665.784851 455.290131,660.700256 451.542786,654.921204 
	C441.293335,639.114685 437.856384,620.823242 434.658905,602.586731 
	C432.681549,591.309143 431.373047,579.882141 427.194580,569.103149 
	C426.497375,567.304626 425.964020,565.165649 423.255585,565.287720 
	C420.727875,565.401611 420.032654,567.211975 419.328247,569.165527 
	C416.731873,576.365662 414.129089,583.564331 411.417084,590.721252 
	C410.820740,592.295105 410.733215,594.419128 408.212677,594.920654 
	C402.964111,568.895020 393.342133,544.958191 376.389832,524.201904 
	C359.532257,503.561676 337.663208,490.456390 313.318970,480.845673 
	C311.638702,480.182312 309.713348,479.515167 308.328064,481.449036 
	C306.907379,483.432343 306.972198,485.433533 308.490662,487.434418 
	C310.806000,490.485382 313.073120,493.574982 315.288696,496.699249 
	C329.433960,516.645996 338.727539,538.522766 340.097595,563.125977 
	C341.012390,579.554260 341.186890,596.019897 343.291382,612.371338 
	C345.525421,629.729187 350.006897,646.298340 360.368469,660.766052 
	C362.838470,664.214844 365.638916,667.427002 369.103180,671.770996 
	C359.769897,669.398254 351.698334,667.295959 344.173431,663.256531 
	C333.408997,657.478088 323.453552,650.594666 314.233093,642.595459 
	C312.834412,641.382080 311.371857,639.533813 309.014099,641.088867 
	C306.658600,642.642395 308.067261,644.653992 308.286957,646.512329 
	C308.383881,647.331970 308.609894,648.140137 308.821411,648.941895 
	C319.742096,690.338562 344.622162,720.910706 381.562500,741.827332 
	C407.469147,756.496399 435.557159,761.884216 465.162689,759.906982 
	C466.797028,759.797852 468.723663,759.102173 470.670654,761.343201 
	C463.181915,764.315063 456.154358,767.136353 449.102570,769.895752 
	C433.424377,776.031006 417.086029,777.350891 400.514679,775.924744 
	C397.135132,775.633850 394.783783,776.045715 393.594208,778.994324 
	C392.351349,782.074829 395.120239,783.461853 397.141602,784.786621 
	C404.688171,789.732910 412.786041,793.619446 421.186066,796.887207 
	C442.812958,805.300598 465.338867,807.568970 489.280151,806.693176 
M516.869507,530.753906 
	C519.381348,522.568298 522.831848,514.884399 528.376282,508.224091 
	C534.492004,500.877563 541.772278,494.786743 549.135925,488.804962 
	C552.837646,485.797943 555.403320,482.663147 554.729858,477.453156 
	C554.172119,473.138000 555.535278,468.879364 556.262085,464.635925 
	C560.928528,437.393677 575.337585,415.788177 594.857483,396.887177 
	C609.335266,382.868500 626.118774,372.041077 642.608093,360.796356 
	C655.988098,351.671967 666.419983,340.788605 669.853333,324.223083 
	C676.720398,291.090118 666.529724,262.009094 649.379150,234.189697 
	C647.895203,235.369049 647.106140,237.910721 644.857605,235.487701 
	C638.771423,278.676025 628.310547,312.751770 617.500610,323.981995 
	C601.748962,305.345459 581.055115,295.824005 557.239685,293.556580 
	C533.848022,291.329468 511.544281,295.838013 490.736420,307.923828 
	C503.386047,311.935608 516.081360,315.198669 526.803101,323.037262 
	C537.684387,330.992462 546.415039,340.688324 551.692871,353.970581 
	C550.340088,353.970581 549.670410,354.128967 549.111328,353.947174 
	C538.341553,350.445343 527.250793,350.252014 516.059021,350.273804 
	C489.989502,350.324554 467.791870,360.138153 448.288513,376.725525 
	C442.718597,381.462646 437.667816,386.837921 433.482941,392.919037 
	C432.614838,394.180542 431.839691,395.543091 432.898834,397.054749 
	C434.033356,398.673950 435.564911,398.791168 437.323151,398.103943 
	C438.715179,397.559814 440.157318,397.136108 441.593323,396.713745 
	C455.169922,392.720154 468.974976,391.185425 482.971588,393.735504 
	C491.083496,395.213470 498.956573,397.648773 505.796814,402.567596 
	C504.942139,404.638367 503.267731,404.753601 501.989532,405.346344 
	C470.128174,420.121643 453.057617,445.744019 447.563538,479.752197 
	C447.170624,482.184296 445.461761,485.662079 447.891876,487.234039 
	C450.835754,489.138336 452.942291,485.629181 454.986450,483.993805 
	C465.070923,475.926239 476.427002,470.612579 489.007477,467.991089 
	C494.318451,466.884399 499.735443,465.799011 505.399567,467.219910 
	C505.248108,471.691284 502.268951,475.017975 501.389252,479.058563 
	C497.016846,499.142456 498.538757,518.703491 506.403717,537.724670 
	C507.864777,541.258240 509.783752,544.404663 514.087036,545.419128 
	C514.992920,540.659851 515.858154,536.114258 516.869507,530.753906 
M788.970337,695.474731 
	C792.025208,691.953125 795.192810,688.522461 798.117249,684.895630 
	C824.251465,652.484497 838.882263,616.374023 832.568176,573.990173 
	C829.820679,555.547424 822.788208,538.753601 809.619690,525.062439 
	C807.760864,523.129761 805.862427,519.651855 802.875610,520.835815 
	C799.633301,522.121033 801.291687,525.931091 801.411621,528.521790 
	C802.593201,554.029236 794.925171,576.726196 780.056091,597.208740 
	C779.423645,598.079895 779.036499,599.471802 777.174988,598.778442 
	C776.682556,596.176880 776.205933,593.417725 775.634155,590.678345 
	C772.640259,576.334656 768.372986,562.481873 757.338684,552.060730 
	C741.062378,536.688843 721.185913,533.372131 699.786255,535.783997 
	C698.136230,535.970032 696.437317,536.096619 694.877747,536.607178 
	C693.244629,537.141785 690.891907,536.951599 690.468445,539.254395 
	C690.042542,541.570557 692.166199,542.221863 693.652161,543.203613 
	C694.067688,543.478210 694.541138,543.664307 694.960205,543.934204 
	C707.853210,552.237244 718.535400,562.464539 723.538330,577.452698 
	C724.964050,581.724060 726.497620,586.106018 725.204346,590.826782 
	C722.652344,590.579224 721.293213,589.004272 719.663391,587.924622 
	C700.086365,574.955627 678.826782,568.682556 655.293518,572.384827 
	C631.445007,576.136719 613.711426,592.750977 608.851990,615.386780 
	C606.109436,628.161682 611.721985,638.626831 623.935242,643.294617 
	C629.728149,645.508484 635.738586,646.696045 641.978699,646.687744 
	C662.306458,646.660583 682.635376,646.546875 702.961365,646.738098 
	C712.609436,646.828918 722.263123,647.759033 731.467773,650.858826 
	C746.713257,655.992981 757.065308,666.080933 759.067627,682.425842 
	C760.941223,697.720093 755.654846,711.258728 745.775452,723.012512 
	C744.703552,724.287781 742.859863,725.144226 743.014465,728.411743 
	C746.448364,725.232056 749.751221,729.425781 753.488098,726.458801 
	C765.624756,716.822876 777.960815,707.465515 788.970337,695.474731 
M650.117859,455.938568 
	C648.007202,453.462250 646.445984,455.256592 645.317627,456.837341 
	C638.214172,466.788971 632.632751,477.428619 630.831970,489.897827 
	C640.234497,495.256561 650.201721,497.203217 660.699219,496.646881 
	C678.478210,495.704651 692.513550,488.258850 702.149780,472.913483 
	C710.647705,459.380981 710.356445,444.473877 709.420044,429.442200 
	C709.242126,426.586792 707.424438,425.289673 704.314636,425.244904 
	C696.711060,425.135406 689.507629,427.053467 682.317200,429.077179 
	C676.583618,430.690887 676.334717,431.707062 678.956482,437.132874 
	C684.459167,448.520844 685.416687,460.391846 681.888123,472.502655 
	C680.114319,478.590759 676.541199,483.660767 669.711121,484.146606 
	C662.975647,484.625763 658.767822,480.186829 655.640747,474.674316 
	C652.455627,469.059448 651.403320,462.839294 650.117859,455.938568 
M573.257629,527.381592 
	C575.085327,528.133911 576.852051,529.211975 578.753967,529.567932 
	C582.267212,530.225586 584.155945,527.938049 584.568298,524.898865 
	C585.032227,521.480103 582.045288,521.492126 579.799622,521.385559 
	C578.014587,521.300903 576.169922,521.625549 574.411011,522.027527 
	C571.401855,522.715210 570.406799,524.285828 573.257629,527.381592 
z"/>
</svg>